HIERARCHY
ROOT hip
{
  OFFSET 0 0 0
  CHANNELS 6 Xposition Yposition Zposition Zrotation Yrotation Xrotation
  JOINT abdomen
  {
    OFFSET 0 20.6881 -0.73152
    CHANNELS 3 Zrotation Xrotation Yrotation
    JOINT chest
    {
      OFFSET 0 11.7043 -0.48768
      CHANNELS 3 Zrotation Xrotation Yrotation
      JOINT neck
      {
        OFFSET 0 22.1894 -2.19456
        CHANNELS 3 Zrotation Xrotation Yrotation
        JOINT head
        {
          OFFSET -0.24384 7.07133 1.2192
          CHANNELS 3 Zrotation Xrotation Yrotation
          JOINT leftEye
          {
            OFFSET 4.14528 8.04674 8.04672
            CHANNELS 3 Zrotation Xrotation Yrotation
            End Site
            {
              OFFSET 1 0 0
            }
          }
          JOINT rightEye
          {
            OFFSET -3.6576 8.04674 8.04672
            CHANNELS 3 Zrotation Xrotation Yrotation
            End Site
            {
              OFFSET 1 0 0
            }
          }
        }
      }
      JOINT rCollar
      {
        OFFSET -2.68224 19.2634 -4.8768
        CHANNELS 3 Zrotation Xrotation Yrotation
        JOINT rShldr
        {
          OFFSET -8.77824 -1.95073 1.46304
          CHANNELS 3 Zrotation Xrotation Yrotation
          JOINT rForeArm
          {
            OFFSET -28.1742 -1.7115 0.48768
            CHANNELS 3 Zrotation Xrotation Yrotation
            JOINT rHand
            {
              OFFSET -22.5879 0.773209 7.07136
              CHANNELS 3 Zrotation Xrotation Yrotation
              JOINT rThumb1
              {
                OFFSET -1.2192 -0.487915 3.41376
                CHANNELS 3 Zrotation Xrotation Yrotation
                JOINT rThumb2
                {
                  OFFSET -3.37035 -0.52449 3.41376
                  CHANNELS 3 Zrotation Xrotation Yrotation
                  End Site
                  {
                    OFFSET -1.78271 -1.18214 1.43049
                  }
                }
              }
              JOINT rIndex1
              {
                OFFSET -7.75947 0.938293 5.60832
                CHANNELS 3 Zrotation Xrotation Yrotation
                JOINT rIndex2
                {
                  OFFSET -2.54057 -0.884171 1.56538
                  CHANNELS 3 Zrotation Xrotation Yrotation
                  End Site
                  {
                    OFFSET -1.62519 -0.234802 1.16502
                  }
                }
              }
              JOINT rMid1
              {
                OFFSET -8.24714 1.18213 3.41376
                CHANNELS 3 Zrotation Xrotation Yrotation
                JOINT rMid2
                {
                  OFFSET -3.10165 -0.590103 1.0647
                  CHANNELS 3 Zrotation Xrotation Yrotation
                  End Site
                  {
                    OFFSET -2.48547 -0.328903 0.83742
                  }
                }
              }
              JOINT rRing1
              {
                OFFSET -8.82822 0.546677 1.51678
                CHANNELS 3 Zrotation Xrotation Yrotation
                JOINT rRing2
                {
                  OFFSET -2.60934 -0.819778 -0.0198488
                  CHANNELS 3 Zrotation Xrotation Yrotation
                  End Site
                  {
                    OFFSET -2.33842 -0.294052 0.168128
                  }
                }
              }
              JOINT rPinky1
              {
                OFFSET -8.27202 -0.0477905 -0.4584
                CHANNELS 3 Zrotation Xrotation Yrotation
                JOINT rPinky2
                {
                  OFFSET -1.82734 -0.647385 -0.700984
                  CHANNELS 3 Zrotation Xrotation Yrotation
                  End Site
                  {
                    OFFSET -1.69225 -0.51767 -0.607171
                  }
                }
              }
            }
          }
        }
      }
      JOINT lCollar
      {
        OFFSET 2.68224 19.2634 -4.8768
        CHANNELS 3 Zrotation Xrotation Yrotation
        JOINT lShldr
        {
          OFFSET 8.77824 -1.95073 1.46304
          CHANNELS 3 Zrotation Xrotation Yrotation
          JOINT lForeArm
          {
            OFFSET 28.1742 -1.7115 0.48768
            CHANNELS 3 Zrotation Xrotation Yrotation
            JOINT lHand
            {
              OFFSET 22.5879 0.773209 7.07136
              CHANNELS 3 Zrotation Xrotation Yrotation
              JOINT lThumb1
              {
                OFFSET 1.2192 -0.487915 3.41376
                CHANNELS 3 Zrotation Xrotation Yrotation
                JOINT lThumb2
                {
                  OFFSET 3.37035 -0.52449 3.41376
                  CHANNELS 3 Zrotation Xrotation Yrotation
                  End Site
                  {
                    OFFSET 1.78271 -1.18214 1.43049
                  }
                }
              }
              JOINT lIndex1
              {
                OFFSET 7.75947 0.938293 5.60832
                CHANNELS 3 Zrotation Xrotation Yrotation
                JOINT lIndex2
                {
                  OFFSET 2.54057 -0.884171 1.56538
                  CHANNELS 3 Zrotation Xrotation Yrotation
                  End Site
                  {
                    OFFSET 1.62519 -0.234802 1.16502
                  }
                }
              }
              JOINT lMid1
              {
                OFFSET 8.24714 1.18213 3.41376
                CHANNELS 3 Zrotation Xrotation Yrotation
                JOINT lMid2
                {
                  OFFSET 3.10165 -0.590103 1.0647
                  CHANNELS 3 Zrotation Xrotation Yrotation
                  End Site
                  {
                    OFFSET 2.48547 -0.328903 0.83742
                  }
                }
              }
              JOINT lRing1
              {
                OFFSET 8.82822 0.546677 1.51678
                CHANNELS 3 Zrotation Xrotation Yrotation
                JOINT lRing2
                {
                  OFFSET 2.60934 -0.819778 -0.0198488
                  CHANNELS 3 Zrotation Xrotation Yrotation
                  End Site
                  {
                    OFFSET 2.33842 -0.294052 0.168128
                  }
                }
              }
              JOINT lPinky1
              {
                OFFSET 8.27202 -0.0477905 -0.4584
                CHANNELS 3 Zrotation Xrotation Yrotation
                JOINT lPinky2
                {
                  OFFSET 1.82734 -0.647385 -0.700984
                  CHANNELS 3 Zrotation Xrotation Yrotation
                  End Site
                  {
                    OFFSET 1.69225 -0.51767 -0.607171
                  }
                }
              }
            }
          }
        }
      }
    }
  }
  JOINT rButtock
  {
    OFFSET -8.77824 4.35084 1.2192
    CHANNELS 3 Zrotation Xrotation Yrotation
    JOINT rThigh
    {
      OFFSET 0 -1.70687 -2.19456
      CHANNELS 3 Zrotation Xrotation Yrotation
      JOINT rShin
      {
        OFFSET 0 -36.8199 0.73152
        CHANNELS 3 Zrotation Xrotation Yrotation
        JOINT rFoot
        {
          OFFSET 0.73152 -45.1104 -5.12064
          CHANNELS 3 Zrotation Xrotation Yrotation
          End Site
          {
            OFFSET -1.1221 -3.69964 12.103
          }
        }
      }
    }
  }
  JOINT lButtock
  {
    OFFSET 8.77824 4.35084 1.2192
    CHANNELS 3 Zrotation Xrotation Yrotation
    JOINT lThigh
    {
      OFFSET 0 -1.70687 -2.19456
      CHANNELS 3 Zrotation Xrotation Yrotation
      JOINT lShin
      {
        OFFSET 0 -36.8199 0.73152
        CHANNELS 3 Zrotation Xrotation Yrotation
        JOINT lFoot
        {
          OFFSET -0.73152 -45.1104 -5.12064
          CHANNELS 3 Zrotation Xrotation Yrotation
          End Site
          {
            OFFSET 1.1221 -3.69964 12.103
          }
        }
      }
    }
  }
}
MOTION
Frames:	5
Frame Time:	0.00833333
0.0 0.0 0.0 0.0 0.0 0.0 0.0 0.0 0.0 0.0 0.0 0.0 0.0 0.0 0.0 0.0 0.0 0.0 0.0 0.0 0.0 0.0 0.0 0.0 0.0 0.0 0.0 0.0 0.0 0.0 0.0 0.0 0.0 0.0 0.0 0.0 0.0 0.0 0.0 0.0 0.0 0.0 0.0 0.0 0.0 0.0 0.0 0.0 0.0 0.0 0.0 0.0 0.0 0.0 0.0 0.0 0.0 0.0 0.0 0.0 0.0 0.0 0.0 0.0 0.0 0.0 0.0 0.0 0.0 0.0 0.0 0.0 0.0 0.0 0.0 0.0 0.0 0.0 0.0 0.0 0.0 0.0 0.0 0.0 0.0 0.0 0.0 0.0 0.0 0.0 0.0 0.0 0.0 0.0 0.0 0.0 0.0 0.0 0.0 0.0 0.0 0.0 0.0 0.0 0.0 0.0 0.0 0.0 0.0 0.0 0.0 0.0 0.0 0.0 0.0 0.0 0.0 0.0 0.0 0.0 0.0 0.0 0.0 0.0 0.0 0.0 0.0 0.0 0.0 0.0 0.0 0.0
0.038200000000000005 61.9139 0.1879 179.775741 44.325488 178.286714 1.106718 -0.084317 -149.44756 -8.697518 -8.437717 125.974687 10.117404 -9.58942 105.718589 -42.138027 0.101833 -77.178841 157.57927 9.041463 -43.49734 49.460107 -18.438751 -38.825319 59.013196 38.131984 17.913961 -153.028479 34.149004 164.907952 -172.537808 -42.494397 -26.241878 0.636304 5.100793 -63.133795 -96.153228 -0.75902 35.361187 -12.205125 44.951035 178.831936 102.51249 29.220366 -121.448125 -10.200296 -7.808858 -0.685797 165.484668 16.480955 -116.05324 -161.217368 8.56906 143.556104 86.758716 20.963047 -81.128064 -22.907124 -75.306857 -42.745859 -170.627939 25.621525 -73.588392 -24.231512 -40.954563 -26.016222 -75.774889 -5.797262 -0.488206 -18.867871 -43.677289 -8.99848 156.131899 -74.511985 -7.085157 -148.580354 -41.572475 -89.239289 1.320873 -15.488345 -16.662799 78.980039 21.545124 -56.482348 -8.710671 -31.083235 -26.990032 -17.906335 -9.185098 3.977506 -8.784512 -32.432219 -22.409661 -2.913184 15.464624 6.676278 -161.102669 22.593883 67.086673 -9.727145 -0.59063 3.601924 145.45014 39.289574 55.901214 9.31339 -21.553225 8.615434 -3.375486 53.667307 -175.812539 1.513728 51.775934 -176.656375 5.985031 4.055487 139.976737 19.089177 -62.788064 -155.424635 49.35745 23.310889 106.797012 -1.877005 51.403144 -180.0 3.117554 -5.491981 39.32409 -72.181771 21.739886 83.397358
0.21020000000000003 48.2052 0.2578 -19.503262 -47.862089 22.646361 9.623675 7.786502 -0.91504 1.415754 -6.387658 5.674209 -9.298936 22.259268 -78.804176 38.769866 9.131643 102.180744 -1.120452 0.035809 -3.660875 0.818531 0.040171 5.619225 -155.70297 -2.912778 161.761185 41.362785 -47.818563 87.836718 -151.431328 78.51135 12.429499 -153.457799 23.777025 133.832323 -1.097285 7.198695 -3.374243 -128.111731 -13.612928 108.346844 -84.489336 44.893274 69.853707 -168.10697 -25.034229 115.965926 -0.033429 0.704992 -0.265444 -3.018852 22.151545 -1.283028 -80.886913 -78.035464 -95.197248 -163.569168 -13.487944 179.803995 -5.436945 3.272661 5.507484 -141.269586 12.285572 -140.578796 155.521475 -4.539893 -161.107559 -0.265171 -12.524668 49.484766 -11.68806 -46.437633 46.468515 -129.240084 -53.02653 -126.301586 -3.210563 -1.258679 0.243969 137.068373 -45.930393 -124.387182 25.359809 31.933481 -19.298926 160.266805 -10.03036 -109.513134 2.522805 15.054897 -3.039601 154.966574 30.303 -135.773743 -5.203925 5.258894 0.233278 -27.938048 -88.714797 -12.969912 45.049762 -47.751623 44.62522 139.74023 9.581489 139.852699 2.686984 0.917946 1.353755 -19.726769 2.491884 -180.0 1.130122 -54.558894 44.141814 165.573238 -32.058214 -108.363894 -0.006633 0.366313 1.037316 89.350093 -58.997056 -0.869038 -90.239339 11.173265 -107.042148 -60.649361 -1.558781 179.507404
0.6639 47.3021 0.219 -17.965931 -47.242948 21.849737 5.01771 6.185574 79.041079 -5.312355 -6.223683 -72.824682 9.149715 15.565788 57.67535 -23.969469 -12.756938 -39.709651 -2.058791 0.009288 -0.516906 0.625869 0.013931 2.550296 0.849215 -0.67315 -1.394326 -60.748887 -48.179832 -116.218993 144.090592 4.924292 -57.612588 -25.507203 13.183079 5.171566 -157.837343 1.432614 89.492583 -5.794068 -41.263694 11.002185 87.211084 -77.368949 37.821344 54.219143 -52.100048 2.101848 -89.360716 62.721246 82.022527 2.662142 0.926783 1.944173 -61.676322 71.080913 79.507735 -146.338117 -51.007379 -171.24042 -85.078843 -51.263668 -85.079356 17.54474 42.411952 10.967356 6.325806 25.46166 -7.934662 -71.879388 -37.922081 -95.712369 86.210601 54.226596 -59.609333 -21.876147 -24.935216 -23.937164 -0.993766 -2.218262 -0.453655 -8.143519 -15.813325 10.984381 4.782472 3.303625 -3.219429 16.680193 26.91527 -13.634586 159.630198 -0.716486 -139.614574 86.937586 60.52614 -80.728589 148.18511 6.081644 -176.727036 -10.079767 44.960755 4.19881 146.210777 10.673704 146.780684 127.128904 -31.45117 126.436124 -0.002517 1.726319 0.083565 -18.020023 3.068853 0.628019 10.724827 41.173104 39.22685 -170.588194 -40.149161 95.867331 5.444184 1.81914 5.598424 87.186638 -63.604204 -4.028441 -78.12242 4.236617 98.393072 32.197925 -7.737853 -21.88821
1.0598 48.8546 0.0246 -16.37795 -48.276823 19.408553 4.236353 9.577604 42.51043 -2.37559 -8.490719 -36.308978 9.797041 17.357495 70.482644 -29.985672 -7.720839 -51.779939 -2.024232 0.087239 -4.935018 1.282409 0.009279 0.829058 -114.572733 64.178889 118.156431 -65.42084 21.619197 111.621718 9.887899 14.809976 -141.467152 -149.987113 27.312319 129.941052 -171.263818 -9.600931 89.28141 -46.833937 -13.794257 9.605703 -44.937562 40.449661 36.060042 103.054992 -61.098805 53.092185 68.133802 -80.439172 39.560015 -170.625522 -25.404724 145.884921 -143.552657 2.170539 178.764062 -152.199256 -6.549981 178.437393 -146.965019 37.797422 -152.069359 9.923807 13.436146 0.810614 41.230659 62.711702 -44.375829 67.813516 40.312985 -27.963 2.669353 -30.569698 58.057329 -92.474606 -60.327005 -91.391393 -83.508972 -49.25167 -33.847171 119.395567 30.419708 -82.922795 167.340747 -40.585335 -119.773975 155.735822 -11.141198 -121.95303 0.925743 0.275594 -2.569359 -22.750849 -61.583664 -0.076658 148.424158 3.925101 -176.531563 -8.281983 21.705241 3.605763 24.061655 -40.606894 18.960191 11.221892 -23.570228 13.314455 -0.702518 1.388212 0.0 -17.309342 0.057826 -0.336733 -1.310337 45.844323 -1.586058 -31.138933 -2.954748 -16.092294 5.751667 0.97186 5.821318 80.583158 -66.272021 180.0 85.110594 -5.718696 161.98813 131.036551 -29.394039 -134.032389
